<svg width="557" height="291" viewBox="0 0 557 291" fill="none" xmlns="http://www.w3.org/2000/svg">
<path d="M175.336 151.008H135.016V204H114.28V151.008H0.520001V136.032L107.368 2.39999H130.408L27.304 132.576H114.856V85.92H135.016V132.576H175.336V151.008ZM274.734 205.728C259.182 205.728 245.262 201.6 232.974 193.344C220.878 185.088 211.374 173.28 204.462 157.92C197.742 142.368 194.382 124.128 194.382 103.2C194.382 82.272 197.742 64.128 204.462 48.768C211.374 33.216 220.878 21.312 232.974 13.056C245.262 4.79999 259.182 0.671991 274.734 0.671991C290.286 0.671991 304.11 4.79999 316.206 13.056C328.494 21.312 338.094 33.216 345.006 48.768C351.918 64.128 355.374 82.272 355.374 103.2C355.374 124.128 351.918 142.368 345.006 157.92C338.094 173.28 328.494 185.088 316.206 193.344C304.11 201.6 290.286 205.728 274.734 205.728ZM274.734 186.72C286.446 186.72 296.718 183.456 305.55 176.928C314.574 170.4 321.582 160.896 326.574 148.416C331.566 135.936 334.062 120.864 334.062 103.2C334.062 85.536 331.566 70.464 326.574 57.984C321.582 45.504 314.574 36 305.55 29.472C296.718 22.944 286.446 19.68 274.734 19.68C263.022 19.68 252.654 22.944 243.63 29.472C234.798 36 227.886 45.504 222.894 57.984C217.902 70.464 215.406 85.536 215.406 103.2C215.406 120.864 217.902 135.936 222.894 148.416C227.886 160.896 234.798 170.4 243.63 176.928C252.654 183.456 263.022 186.72 274.734 186.72ZM556.43 151.008H516.11V204H495.374V151.008H381.614V136.032L488.462 2.39999H511.502L408.398 132.576H495.95V85.92H516.11V132.576H556.43V151.008Z" fill="#FECF1D"/>
<path fill-rule="evenodd" clip-rule="evenodd" d="M225.361 183.081L252.905 168.127C252.905 168.127 267.764 172.067 272.269 171.347C276.774 170.627 293.229 167.367 293.229 167.367L317.378 175.224C317.378 175.224 324.107 176.776 325.78 178.437C327.452 180.098 329.124 179.968 329.935 183.081C330.746 186.195 324.818 259.693 324.818 259.693H308.905C308.905 259.693 308.5 258.366 308.5 253.057C308.5 247.749 307.79 241.42 308.601 238.256C309.412 235.091 309.412 231.008 308.905 225.292C308.399 219.575 308.601 212.838 309.209 207.632C309.817 202.426 310.426 199.772 310.426 199.772C310.426 199.772 310.18 199.057 297.959 195.484C285.739 191.912 274.936 192.606 274.936 192.606C274.936 192.606 253.161 195.485 247.282 198.955C241.404 202.426 239.173 204.264 239.173 204.264C239.173 204.264 245.913 225.293 246.826 228.559C247.737 231.826 248.245 236.879 248.853 239.023C249.461 241.167 249.056 241.677 251.59 244.944C254.124 248.21 254.124 253.417 253.921 254.335C253.718 255.254 254.529 259.693 254.529 259.693C254.529 259.693 240.745 266.381 239.326 265.972C237.907 265.564 235.271 249.537 233.447 245.863C231.623 242.187 224.528 224.323 220.981 215.442C217.433 206.561 215.102 198.659 215.001 194.311C214.899 189.964 225.361 183.082 225.361 183.082V183.081Z" fill="#272727"/>
<path fill-rule="evenodd" clip-rule="evenodd" d="M259.845 105.381C259.338 105.407 258.382 105.942 256.994 106.364C255.607 106.785 241.14 112.151 240.836 112.763C240.532 113.376 238.86 119.807 238.505 124.452C238.15 129.096 232.526 162.426 232.475 164.06C232.424 165.693 231.411 170.695 233.336 171.766C235.262 172.838 256.952 182.383 258.016 182.996C259.08 183.608 263.084 186.109 263.641 186.211C264.199 186.313 265.238 184.807 265.34 184.718C265.441 184.629 264.535 184.462 264.523 184.054C264.51 183.645 266.138 179.154 267.303 178.809C268.469 178.465 269.394 178.72 269.66 178.72C269.926 178.72 267.139 177.788 266.163 177.01C265.188 176.232 258.396 172.429 256.876 171.562C255.356 170.694 244.562 164.569 243.953 164.569C243.345 164.569 243.092 164.62 243.092 164.62C243.092 164.62 245.981 150.164 246.589 147.981C247.197 145.798 248.869 136.293 248.869 136.293C248.869 136.293 250.389 144.255 250.389 146.654C250.389 149.053 252.113 160.894 252.214 162.732C252.315 164.569 252.726 167.904 253.03 168.159C253.333 168.414 260.322 169.878 263.667 170.643C267.012 171.408 278.008 171.613 280.897 171.102C283.786 170.592 290.982 168.653 292.046 168.091C293.111 167.529 293.06 167.784 293.516 166.815C293.972 165.845 294.935 163.497 294.225 160.435C293.516 157.372 294.478 138.488 294.478 137.62C294.478 136.752 294.478 131.444 294.478 131.444C294.478 131.444 296.506 137.467 297.57 139.304C298.634 141.142 303.398 148.237 303.55 149.308C303.702 150.38 308.009 161.915 308.009 161.915L282.423 179.218C282.423 179.218 284.9 186.874 286.826 188.609C288.751 190.345 288.751 190.345 288.751 190.345C288.751 190.345 294.529 180.443 299.191 177.38C303.853 174.318 314.496 169.214 315.408 167.172C316.32 165.131 317.638 160.435 317.333 158.802C317.029 157.168 304.968 115.89 303.144 113.817C301.319 111.743 283.958 103.628 283.958 103.628C283.958 103.628 262.956 103.628 259.845 105.381V105.381Z" fill="#E4D6D6"/>
<path fill-rule="evenodd" clip-rule="evenodd" d="M265.413 184.935C265.578 185.049 268.01 185.981 268.302 186.708C268.593 187.435 269.088 194.402 268.986 195.601C268.885 196.801 268.733 197.515 268.733 197.515C268.733 197.515 265.951 201.114 266.579 201.293C267.206 201.471 271.267 199.123 271.647 198.766C272.027 198.409 274.199 196.239 274.485 195.525C274.77 194.81 275.879 184.653 275.676 183.836C275.473 183.02 270.307 178.791 269.66 178.72C269.012 178.649 266.375 178 265.134 181.343C263.892 184.686 264.186 184.08 265.413 184.935H265.413Z" fill="#EFA46B"/>
<path fill-rule="evenodd" clip-rule="evenodd" d="M282.036 180.424C281.808 180.688 278.691 182.747 278.26 183.487C277.829 184.227 278.26 192.062 278.26 193.746C278.26 195.43 280.052 197.983 280.052 198.34C280.052 198.697 282.922 201.096 282.922 201.096C282.922 201.096 282.423 195.329 282.423 194.869C282.423 194.409 283.328 188.795 283.682 188.387C284.037 187.978 285.739 187.157 285.739 187.157L282.777 180.099L282.035 180.424H282.036Z" fill="#EFA46B"/>
<path fill-rule="evenodd" clip-rule="evenodd" d="M240.086 266.686C239.731 268.524 233.498 277.915 232.079 280.059C230.66 282.203 229.039 290.267 230.255 290.778C231.471 291.288 239.478 291.084 242.671 288.379C245.864 285.673 250.83 276.69 251.793 274.751C252.756 272.811 254.175 270.718 254.327 270.208C254.479 269.698 253.772 260.057 253.772 260.057L240.403 265.206L240.086 266.686L240.086 266.686Z" fill="#121214"/>
<path fill-rule="evenodd" clip-rule="evenodd" d="M273.456 124.293L270.019 176.176L269.66 178.72L275.255 182.838C275.255 182.838 278.27 178.805 279.309 176.866C280.348 174.926 276.766 137.897 276.766 137.897L276.199 123.655L273.487 123.471L273.456 124.293H273.456Z" fill="#EE3332"/>
<path fill-rule="evenodd" clip-rule="evenodd" d="M323.741 260.97C324.095 262.807 330.329 272.198 331.748 274.342C333.166 276.486 334.788 284.55 333.572 285.061C332.356 285.571 324.349 285.368 321.156 282.662C317.963 279.957 312.997 270.974 312.034 269.034C311.071 267.094 309.652 265.001 309.5 264.491C309.348 263.981 310.055 254.34 310.055 254.34L323.424 259.489L323.74 260.97L323.741 260.97Z" fill="#121214"/>
<path fill-rule="evenodd" clip-rule="evenodd" d="M261.89 104.654C261.725 104.718 260.375 105.159 260.375 105.159C260.375 105.159 259.8 105.344 260.375 107.462C260.951 109.58 264.822 121.179 265.037 121.524C265.253 121.868 265.152 122.353 265.722 121.843C266.292 121.332 268.357 118.079 268.585 117.734C268.813 117.389 268.787 117.261 268.876 117.313C268.965 117.364 271.056 119.214 271.144 119.214C271.233 119.214 271.752 117.913 271.448 117.504C271.144 117.096 270.118 115.743 269.89 115.437C269.749 115.248 269.526 114.251 269.287 113.385C269.139 112.847 268.983 112.359 268.838 112.144C268.458 111.583 263.289 103.008 261.89 104.655L261.89 104.654Z" fill="#CCCCCC"/>
<path fill-rule="evenodd" clip-rule="evenodd" d="M276.767 117.983C276.83 117.639 278.528 111.616 278.655 111.386C278.782 111.156 282.813 103.633 282.813 103.633L283.781 103.628L284.923 104.082L285.674 104.751C285.674 104.751 286.763 108.343 285.674 111.08C284.585 113.817 282.423 122.437 282.423 122.615C282.423 122.793 279.769 116.209 279.491 115.878C279.212 115.546 277.109 118.761 276.767 117.984L276.767 117.983Z" fill="#C8C0BE"/>
<path fill-rule="evenodd" clip-rule="evenodd" d="M258.774 93.5166C258.774 93.3378 256.899 87.1365 257.254 84.1761C257.609 81.216 259.433 77.7311 259.433 77.7311C259.433 77.7311 255.78 74.3767 260.951 73.2534C266.122 72.1302 270.729 72.1307 272.455 70.7525C274.18 69.3744 274.18 69.5525 273.99 68.7998C273.8 68.047 275.929 70.4335 276.169 71.1862C276.41 71.939 279.146 72.0408 280.983 70.6245C282.821 69.2082 285.667 74.1796 285.667 74.1796C284.805 75.1031 289.235 77.2622 289.078 77.3371C288.553 77.5883 285.936 78.0019 285.784 78.5122C285.632 79.0225 286.899 83.463 286.798 85.5556C286.696 87.6483 283.958 98.1115 283.958 98.1115C283.958 98.1115 281.629 81.0129 279.196 79.8391C276.763 78.6653 268.706 79.9922 268.148 80.5027C267.591 81.0131 263.993 92.1397 263.435 94.2324C262.878 96.3252 261.763 100.306 261.763 100.306L258.774 93.5166H258.774Z" fill="#271910"/>
<path fill-rule="evenodd" clip-rule="evenodd" d="M256.581 97.2812C257.21 98.2256 261.551 101.539 261.551 101.539C261.551 101.539 261.039 93.7593 260.052 93.5552C259.066 93.3511 255.162 91.8452 256.581 97.2812Z" fill="#EFA46B"/>
<path fill-rule="evenodd" clip-rule="evenodd" d="M268.134 118.965C268.141 119.004 269.059 119.737 269.959 119.922C270.858 120.107 271.2 120.197 271.2 120.197L272.727 123.655C272.727 123.655 272.803 123.297 274.197 123.655C275.59 124.012 275.92 123.987 276.198 123.655C276.477 123.323 277.947 118.965 277.947 118.965L280.189 117.382L279.489 115.878C279.489 115.878 277.073 118.014 277.029 118.028C276.985 118.04 273.899 117.594 272.835 118.04C271.77 118.487 271.479 118.729 271.251 118.819C271.023 118.908 269.085 117.275 268.996 117.224C268.907 117.173 267.615 118.832 268.134 118.965Z" fill="#E73635"/>
<path fill-rule="evenodd" clip-rule="evenodd" d="M287.393 99.3703C286.765 100.315 282.423 103.628 282.423 103.628C282.423 103.628 282.935 95.8484 283.922 95.6443C284.908 95.4402 288.812 93.9343 287.393 99.3703Z" fill="#EFA46B"/>
<path fill-rule="evenodd" clip-rule="evenodd" d="M250.309 132.874L248.869 136.293L250.789 151.053L252.371 164.422L253.029 168.159L255.503 168.781L250.309 132.874Z" fill="#CCCCCC"/>
<path fill-rule="evenodd" clip-rule="evenodd" d="M295.036 125.039C295.011 125.652 294.478 131.444 294.478 131.444L297.57 139.304L298.64 141.033L295.036 125.039V125.039Z" fill="#CCCCCC"/>
<path fill-rule="evenodd" clip-rule="evenodd" d="M269.504 113.9L269.477 114.1C269.477 114.1 269.403 114.791 270.425 116.148C271.448 117.504 271.29 118.96 271.29 118.96C271.29 118.96 274.009 117.677 275.388 117.875C276.766 118.073 276.775 118.001 276.775 118.001L278.658 111.642L280.151 109.184C280.151 109.184 277.087 109.184 274.771 109.184C272.454 109.184 268.802 112.03 268.899 112.249C268.997 112.469 269.504 113.9 269.504 113.9V113.9Z" fill="#E6904E"/>
<path fill-rule="evenodd" clip-rule="evenodd" d="M282.522 81.4006C283.029 82.4725 283.834 93.1176 283.834 93.1176H283.833C283.915 93.9846 283.958 94.8716 283.958 95.7742C283.958 105.739 278.808 113.817 272.454 113.817C266.1 113.817 260.95 105.739 260.95 95.7742C260.95 94.1109 261.095 92.501 261.363 90.9715L261.364 90.9595C261.779 88.013 261.388 80.4308 262.833 79.8183C267.144 77.9908 280.534 77.1945 282.522 81.4006H282.522Z" fill="#EFA46B"/>
<path fill-rule="evenodd" clip-rule="evenodd" d="M261.397 67.5184H272.549H283.7L285.053 74.1793C281.559 75.4601 276.901 76.2478 272.548 76.113C268.196 76.2478 263.538 75.4601 260.043 74.1793L261.397 67.5184H261.397Z" fill="#424141"/>
<path d="M273.255 60.0001L252.677 66.6474L273.255 73.2947L293.833 66.6474L273.255 60.0001Z" fill="#4D4D4D"/>
<path fill-rule="evenodd" clip-rule="evenodd" d="M260.877 70.0802L261.026 69.3439L273.256 73.2944V74.2401L260.877 70.0802Z" fill="#333333"/>
<path fill-rule="evenodd" clip-rule="evenodd" d="M284.191 70.571L284.067 69.8021L273.255 73.2944V74.2401L284.191 70.571Z" fill="#333333"/>
<path d="M273.256 66.922C273.599 66.922 273.877 66.799 273.877 66.6473C273.877 66.4956 273.599 66.3727 273.256 66.3727C272.913 66.3727 272.635 66.4956 272.635 66.6473C272.635 66.799 272.913 66.922 273.256 66.922Z" fill="black"/>
<path fill-rule="evenodd" clip-rule="evenodd" d="M261.899 69.912V72.9641C261.899 73.0435 261.963 73.1093 262.043 73.1093H262.043C262.123 73.1093 262.187 73.0441 262.187 72.9641V69.7885L273.383 66.7674C273.44 66.752 273.474 66.693 273.458 66.6362V66.636C273.443 66.5789 273.385 66.5449 273.328 66.5603L261.903 69.6438C261.894 69.6459 261.899 69.898 261.899 69.912H261.899Z" fill="black"/>
<path fill-rule="evenodd" clip-rule="evenodd" d="M262.04 72.5808L262.489 74.2398L262.937 75.8993H262.04H261.143L261.592 74.2398L262.04 72.5808Z" fill="black"/>
<path d="M262.039 73.1093C262.259 73.1093 262.438 72.9294 262.438 72.7075C262.438 72.4856 262.259 72.3057 262.039 72.3057C261.819 72.3057 261.64 72.4856 261.64 72.7075C261.64 72.9294 261.819 73.1093 262.039 73.1093Z" fill="#1A1A1A"/>
</svg>
