<svg width="24" height="24" viewBox="0 0 24 24" fill="none" xmlns="http://www.w3.org/2000/svg">
<path d="M14.9436 8.35355C14.7483 8.15829 14.4317 8.15829 14.2364 8.35355L12.3536 10.2364C12.1583 10.4317 11.8417 10.4317 11.6464 10.2364L9.76355 8.35355C9.56829 8.15829 9.25171 8.15829 9.05645 8.35355L8.35355 9.05645C8.15829 9.25171 8.15829 9.56829 8.35355 9.76355L10.2364 11.6464C10.4317 11.8417 10.4317 12.1583 10.2364 12.3536L8.35355 14.2364C8.15829 14.4317 8.15829 14.7483 8.35355 14.9436L9.05645 15.6464C9.25171 15.8417 9.56829 15.8417 9.76355 15.6464L11.6464 13.7636C11.8417 13.5683 12.1583 13.5683 12.3536 13.7636L14.2364 15.6464C14.4317 15.8417 14.7483 15.8417 14.9436 15.6464L15.6464 14.9436C15.8417 14.7483 15.8417 14.4317 15.6464 14.2364L13.7636 12.3536C13.5683 12.1583 13.5683 11.8417 13.7636 11.6464L15.6464 9.76355C15.8417 9.56829 15.8417 9.25171 15.6464 9.05645L14.9436 8.35355ZM12 2C6.47 2 2 6.47 2 12C2 17.53 6.47 22 12 22C17.53 22 22 17.53 22 12C22 6.47 17.53 2 12 2ZM12 20C7.59 20 4 16.41 4 12C4 7.59 7.59 4 12 4C16.41 4 20 7.59 20 12C20 16.41 16.41 20 12 20Z" fill="#FF3131"/>
</svg>
