<svg width="50" height="50" viewBox="0 0 50 50" fill="none" xmlns="http://www.w3.org/2000/svg">
<circle cx="25" cy="25" r="17.4242" fill="#27AE60"/>
<path d="M25 4.16663C13.5 4.16663 4.16663 13.5 4.16663 25C4.16663 36.5 13.5 45.8333 25 45.8333C36.5 45.8333 45.8333 36.5 45.8333 25C45.8333 13.5 36.5 4.16663 25 4.16663ZM21.1868 35.0631C20.9916 35.2583 20.675 35.2583 20.4797 35.0631L10.7702 25.3535C10.5749 25.1583 10.5749 24.8417 10.7702 24.6464L13.0011 22.4155C13.1961 22.2205 13.5123 22.2202 13.7077 22.415L20.4797 29.1682C20.6751 29.363 20.9913 29.3628 21.1864 29.1677L36.291 14.0631C36.4867 13.8673 36.8043 13.8679 36.9993 14.0644L39.2322 16.3131C39.4263 16.5085 39.4258 16.8242 39.231 17.0189L21.1868 35.0631Z" fill="white"/>
</svg>
