<svg width="244" height="121" viewBox="0 0 244 121" fill="none" xmlns="http://www.w3.org/2000/svg">
<g clip-path="url(#clip0)">
<path fill-rule="evenodd" clip-rule="evenodd" d="M86.0487 18.1707C84.2143 18.1802 82.7203 17.0096 81.0609 16.6283C81.4045 18.1784 84.07 20.0167 84.4474 21.1215C85.1919 21.5186 89.2414 25.6197 93.3193 28.1019C96.2454 29.8829 100.799 32.284 104.159 33.1588C103.861 36.7417 93.8766 45.2073 89.9854 47.7669C88.9492 48.4485 88.1113 48.9645 87.1427 49.5673L84.13 51.049C84.1119 51.0567 84.0578 51.0855 84.019 51.0959C82.8507 52.284 79.1633 53.3457 77.7415 54.2754C78.9852 54.7508 89.6851 50.8365 92.4683 50.7483L92.7375 50.3426C96.1056 49.3116 99.825 48.4112 103.423 47.2262C105.253 46.6233 106.744 46.1236 108.529 45.5477C109.994 45.0745 112.642 44.3542 113.963 43.8148L125.785 39.0293C128.871 38.0658 139.524 32.157 141.81 30.8005C147.653 27.3342 152.628 23.3488 157.368 18.6448C158.397 17.6242 163.132 12.4663 163.63 10.9459C162.669 11.0778 157.273 13.8265 155.69 14.5284C152.914 15.7607 150.183 16.8119 147.262 17.8304C137.402 21.2674 127.543 22.5267 117.08 22.5064C113.881 22.5006 109.04 22.4637 105.692 22.0571C102.243 21.6384 87.7578 19.7677 86.0483 18.1707H86.0487Z" fill="#EE3332"/>
<path fill-rule="evenodd" clip-rule="evenodd" d="M123.734 0.17919C120.527 0.914861 118.931 1.43668 116.96 3.50592C110.655 10.127 117.109 19.955 127.105 18.7389C131.93 18.1523 137.171 13.804 135.814 7.68358C135.244 5.11053 133.603 3.15564 131.584 1.877C129.684 0.673539 126.46 -0.446627 123.734 0.178739V0.17919Z" fill="#EC2029"/>
<path fill-rule="evenodd" clip-rule="evenodd" d="M210.108 74.5262C210.181 77.2262 213.119 79.0771 216.511 76.7363C219.33 74.7905 219.655 79.3927 213.867 79.539C206.226 79.7322 206.087 70.0234 211.317 68.3391C215.222 67.0817 219.584 70.5106 218.417 74.4798L210.108 74.5262H210.108ZM203.129 77.9425C201.643 78.2104 201.544 78.8024 199.39 78.539C198.204 78.3941 197.37 77.875 196.772 77.2244C195.499 75.8408 194.94 73.1174 195.782 70.9716C197.472 66.6688 201.568 68.5706 204.554 68.4742C206.171 68.422 207.162 68.0469 206.962 69.9564L205.303 70.4246C205.173 73.7594 206.111 78.8524 204.043 80.6889C202.929 81.678 201.638 82.0697 199.644 82.0193C197.976 81.977 195.682 81.8338 196.413 79.9149C198.002 79.2666 202.597 82.0715 203.129 77.9429V77.9425ZM178.888 71.9594C178.89 69.3724 176.086 69.3994 174.478 70.2378C173.741 70.6218 173.182 71.5038 172.344 71.0112C169.25 69.1923 181.164 64.7171 181.13 72.1404L181.194 77.3712C182.517 77.68 183.521 77.1388 182.823 79.0766C181.862 79.2491 180.575 79.299 179.656 79.0712C178.566 78.8011 179.682 78.5899 178.44 78.8506C178.308 78.8781 177.625 79.2342 177.234 79.3477C172.028 80.8532 169.803 75.1092 173.119 72.8112C174.94 71.5493 176.556 71.9144 178.888 71.959L178.888 71.9594ZM183.444 68.6746C184.005 68.4738 185.084 68.3936 185.916 68.5089C186.933 68.6493 186.821 69.0744 187.743 68.5976C188.967 67.9646 190.613 67.7165 191.869 68.4314C194.052 69.6741 193.274 73.3385 193.35 77.2415C194.112 77.6818 194.12 77.2847 194.956 77.7624C195.02 79.4012 194.548 79.2144 193.048 79.1869C192.113 79.1698 190.832 79.4183 190.171 78.8983C189.525 77.3099 190.188 77.8939 190.728 77.3919C191.143 77.0065 190.943 78.1181 191.19 76.5643C191.205 76.4743 191.176 75.722 191.174 75.5666C191.16 71.705 192.075 67.7448 186.797 70.8217L186.775 73.1197C186.734 80.9018 187.661 75.6112 187.946 78.2842C188.064 79.3945 187.054 79.2063 186.187 79.1955C184.591 79.1757 183.138 79.4436 183.489 78.0726C183.828 76.7543 184.101 78.318 184.505 76.7796L184.524 72.6307C184.524 68.1064 183.307 71.6929 183.444 68.675L183.444 68.6746ZM135.911 68.7151C136.578 68.2937 138.209 68.3018 139.152 68.4089C140.932 68.6102 140.058 69.4526 139.797 70.5358L141.077 71.9315C141.828 71.5452 141.905 71.0247 142.548 70.4615C142.271 69.4476 141.148 68.6349 143.007 68.4269C143.655 68.3544 145.729 68.422 146.328 68.5949C146.756 70.5453 145.677 69.5669 144.411 71.0612C143.781 71.8045 142.865 72.6874 142.535 73.6082C142.957 74.4681 143.815 75.2848 144.473 76.102C146.49 78.6066 146.287 76.6476 146.726 78.0794C147.182 79.5674 144.489 79.2292 143.5 79.1991C141.224 79.1293 142.387 78.074 142.626 77.0339C141.826 75.889 141.853 75.7026 141.015 75.197L139.499 77.0339C139.783 78.0204 140.465 77.5404 140.063 78.6489C139.796 79.3864 139.078 79.2049 138.402 79.1995C136.353 79.1829 135.409 79.7565 135.489 77.7593C136.995 76.8466 136.387 77.7935 137.83 75.9984C138.515 75.1475 139.24 74.5158 139.697 73.6082C139.343 72.6676 138.454 71.7415 137.806 70.9964C136.554 69.5606 135.683 70.6596 135.911 68.7146V68.7151ZM158.41 76.3586C158.581 79.0802 153.583 80.118 150.918 79.2027C145.346 77.2892 146.303 66.0871 155.077 68.2653C157.049 68.7547 155.827 67.9578 157.518 68.1185C158.725 68.2333 158.353 68.8754 158.234 69.711C157.976 71.5358 159.393 73.2246 156.585 72.7833C156.199 72.0553 155.998 69.146 152.438 69.8199C148.775 70.5128 148.427 78.1807 153.829 77.7588C156.966 77.5139 155.891 74.7657 158.41 76.3581V76.3586ZM161.908 79.168C160.337 79.1662 159.384 79.6232 159.52 77.6827L160.758 77.2793L160.667 66.2685C157.224 64.2632 161.043 64.3997 162.908 64.3762L163.005 68.8452C164.504 68.4855 165.095 67.5837 167.45 68.2869C170.127 69.0865 169.417 73.2862 169.423 77.0344C169.903 77.4166 171.396 77.4013 170.924 78.6336C170.588 79.5133 169.449 79.1545 168.525 79.1536C166.507 79.1509 165.572 79.6308 165.693 77.8452C166.496 77.2856 166.481 77.5981 167.232 77.2446C167.28 75.8696 167.244 74.4933 167.252 73.1174C167.258 71.9383 167.495 70.3827 166.375 69.9091C165.445 69.5156 163.899 70.0176 163.329 70.6146C162.715 71.258 162.923 75.5401 162.898 77.1316L164.235 77.7683C164.397 79.5692 163.443 79.1698 161.909 79.1676L161.908 79.168ZM123.348 77.8925C124.068 77.2419 124.042 77.6372 124.817 77.2185L124.792 66.3352C124.067 65.9277 123.871 66.3149 123.501 65.64C123.022 64.7643 123.597 64.5941 124.135 64.4609L134.295 64.4982C134.37 65.4505 134.253 66.9799 134.219 68.01C134.172 69.4327 133.636 69.4944 132.18 69.037L131.972 66.5697C131.964 66.4527 131.937 66.4239 131.908 66.355C130.838 65.9358 128.447 66.1569 127.201 66.3478L127.034 70.5349L128.824 70.5696C129.175 70.1464 128.928 70.4768 129.14 69.9253L129.442 68.8506C131.931 68.4476 131.113 69.7389 131.132 71.6528C131.151 73.4087 131.798 74.6801 129.461 74.1777L128.937 72.6807C128.918 72.5506 128.874 72.5218 128.823 72.4425L127.018 72.5037L127.161 77.4599C134.806 77.4617 131.589 77.6368 132.571 74.6765C134.038 74.5185 134.368 74.5906 134.4 76.034C134.419 76.9578 134.747 78.3891 134.356 78.8821C133.792 79.4971 124.777 79.1176 123.515 79.0955L123.348 77.893L123.348 77.8925ZM92.7245 50.3179C92.3389 50.5061 92.4359 50.3287 92.4223 50.7483L134.093 50.7839C133.767 51.9261 134.373 50.9099 133.453 51.8086L122.317 61.2454C120.464 62.8482 118.439 64.5986 116.361 66.3073C114.55 67.7962 111.563 69.6097 112.514 73.0116C113.01 74.781 116.263 77.0794 117.955 78.5949L132.678 91.2935C133.48 91.9792 135.103 92.9031 135.378 93.9909C136.339 94.1894 136.804 94.9588 137.64 95.6391C142.31 99.4391 147.278 104.206 151.821 107.887L164.114 118.38C167.993 121.801 170.517 121.894 174.551 118.529C175.901 117.403 177.456 116.081 178.704 115.068C179.311 114.574 193.569 102.155 194.281 102.031L203.325 102.116C205.086 102.109 209.359 102.717 210.346 101.672C208.656 102.506 197.713 102.053 194.903 102.021C195.148 100.972 194.956 101.483 195.77 100.793L198.924 98.0794C206.713 91.262 216.111 82.796 223.758 76.4005C225.158 75.2294 226.913 74.1926 226.825 71.904C226.737 69.6371 224.78 68.6318 223.471 67.4495L196.527 43.9368C194.959 42.6014 194.985 42.9769 194.724 41.9918C194.118 42.1381 193.426 41.1999 192.208 40.1747L182.258 31.5051C181.49 30.819 180.494 30.086 179.717 29.4152C178.029 27.9582 176.43 26.499 174.724 25.0912C172.265 23.062 169.29 21.746 166.163 24.0219C164.248 25.4149 163.478 26.3662 162.077 27.5287C162.039 27.5611 161.981 27.6075 161.942 27.6399C161.904 27.6719 161.849 27.721 161.81 27.7525L142.139 44.3299C133.7 51.2548 136.646 50.6682 129.805 50.656L92.9161 50.4282C92.8778 50.3408 92.7826 50.3643 92.7254 50.3188L92.7245 50.3179Z" fill="#FECF1D"/>
<path fill-rule="evenodd" clip-rule="evenodd" d="M66.9879 79.9703C66.1437 82.0576 64.2435 83.6226 61.4359 83.9467C58.2026 84.32 55.2125 83.9152 53.3785 82.135C51.2081 80.0275 51.5278 77.8335 51.531 74.098C51.5328 71.6992 51.31 66.6202 51.9594 64.6648C53.5359 59.9154 62.1249 59.5385 65.4222 62.5321C67.667 64.5703 67.3441 66.767 67.3392 70.4278C67.336 72.4434 67.5498 78.5823 66.9883 79.9703H66.9879ZM76.5582 83.5942C75.3659 83.7185 74.1479 83.6518 72.9475 83.6563C70.2126 83.6667 70.0985 84.0255 69.7706 83.1278L69.7486 61.3237C72.6319 60.8424 81.3499 60.9446 83.0653 62.275C84.5358 63.4159 85.0174 65.1416 84.9994 67.4923C84.9768 70.3809 84.5913 70.9883 82.3943 71.7856C82.4326 71.8478 82.4967 71.9158 82.5341 71.9536L83.6127 72.7626C83.9825 73.0188 84.2093 73.2525 84.4718 73.61C85.3994 74.8724 85.2357 83.0891 84.8037 83.4898C84.185 84.0183 79.3541 84.0201 78.7403 83.4834C77.9354 82.6051 78.9184 75.5347 78.1947 73.7261L76.638 73.6266L76.5591 83.5942H76.5582ZM104.016 83.601C102.486 83.714 98.2679 83.994 97.2082 83.4285C96.4416 82.7536 95.2155 77.0965 94.8502 75.7103C94.4011 76.1943 94.3587 76.3658 94.3718 77.5148L94.3772 83.5186L87.5454 83.637L87.5066 61.267L94.3749 61.1468L94.388 66.274C94.3564 68.0015 94.3474 67.1222 94.5463 67.7043L94.7591 68.1266C94.7997 68.0717 94.8556 67.9186 94.8719 67.9555L95.1618 67.4018C95.643 66.2001 96.5778 62.6339 97.3322 61.249L103.578 61.1238C103.583 62.2282 102.1 65.636 101.703 66.6256C101.12 68.0789 99.7258 70.6281 100.297 72.4803C100.954 74.6104 103.969 81.9464 104.016 83.601ZM36.9227 73.1809C35.9775 74.7797 35.8567 81.954 34.962 83.6401L26.6634 83.5911C26.3337 82.8041 23.5162 62.7505 23.5537 61.2174C23.9442 61.1612 29.6017 60.9014 30.063 61.3809C31.0244 63.0481 30.5757 72.9139 31.5308 74.2844C32.3687 72.7599 32.3669 63.3457 33.4915 61.2057C34.6089 61.0792 40.1217 60.6704 40.4369 61.529L41.7988 73.126C42.0197 73.6811 41.8154 73.334 42.1433 73.7198C42.5816 69.3436 43.2805 65.5401 43.7297 61.2368L50.368 61.2012C50.202 64.636 49.476 69.345 48.9236 72.5384C48.5336 74.7932 48.0078 82.9031 47.2615 83.4497C46.1007 84.0125 40.6128 83.8328 38.9713 83.5559C37.9518 81.4475 37.7272 74.5807 36.9227 73.1809ZM135.378 93.9904C135.103 92.9027 133.48 91.9788 132.677 91.2931L117.955 78.5944C116.263 77.079 113.01 74.7806 112.514 73.0112C111.562 69.6092 114.55 67.7957 116.361 66.3068C118.438 64.5982 120.464 62.8477 122.316 61.2449L133.452 51.8081C134.373 50.9095 133.766 51.9256 134.093 50.7834L92.4219 50.7479C89.6306 50.8654 79.0262 54.7508 77.7266 54.2785C79.1042 53.3844 82.8777 52.212 83.9915 51.099C83.9388 50.8865 84.6819 50.7442 82.2775 50.7672L18.7872 50.7915C9.13887 50.8019 0.0925321 48.7817 0.116432 56.9632L0.118236 81.4381C0.119589 86.8935 -1.10607 92.1566 4.30478 93.6906C6.43547 94.2943 17.3857 93.9391 20.5026 93.9391L102.601 93.9454C113.386 93.9427 124.657 93.6559 135.377 93.9904H135.378Z" fill="#191917"/>
<path fill-rule="evenodd" clip-rule="evenodd" d="M210.345 101.671C215.263 97.011 222.032 91.5848 227.327 86.821L240.009 75.7382C240.872 74.9521 243.697 72.7077 244 71.8955L233.436 62.6307C229.93 59.5561 226.593 56.6611 222.854 53.3767C219.28 50.2368 215.891 47.382 212.284 44.1133C209.194 41.3133 210.215 42.0405 204.55 42.0206C201.275 42.0094 197.995 42.0625 194.724 41.9909C194.985 42.976 194.958 42.6005 196.527 43.9359L223.47 67.4486C224.78 68.6309 226.737 69.6363 226.825 71.9031C226.913 74.1917 225.158 75.2285 223.758 76.3996C216.11 82.7951 206.712 91.2611 198.924 98.0785L195.77 100.792C194.956 101.482 195.148 100.971 194.902 102.02C197.713 102.052 208.656 102.505 210.346 101.671L210.345 101.671Z" fill="#191917"/>
<path fill-rule="evenodd" clip-rule="evenodd" d="M26.6634 83.5911L34.962 83.6401C35.8567 81.954 35.9776 74.7796 36.9227 73.1809C37.7272 74.5806 37.9518 81.4475 38.9714 83.5559C40.6128 83.8328 46.1008 84.0125 47.2615 83.4497C48.0078 82.9031 48.5336 74.7932 48.9236 72.5384C49.4761 69.345 50.2021 64.636 50.368 61.2012L43.7297 61.2368C43.2806 65.5396 42.5816 69.3436 42.1433 73.7198C41.8155 73.334 42.0197 73.6815 41.7988 73.126L40.4369 61.529C40.1222 60.67 34.609 61.0788 33.4915 61.2057C32.3669 63.3457 32.3691 72.7604 31.5308 74.2844C30.5757 72.9139 31.0244 63.0481 30.063 61.3809C29.6022 60.9014 23.9442 61.1616 23.5537 61.2174C23.5163 62.7505 26.3337 82.8041 26.6634 83.5911Z" fill="#FDFDBE"/>
<path fill-rule="evenodd" clip-rule="evenodd" d="M123.709 0.179644C120.507 0.915766 118.906 1.43983 116.936 3.50683C115.191 5.337 114.035 7.98344 114.669 11.1139C117.136 23.2849 138.555 20.1049 135.794 7.68584C135.222 5.11099 133.585 3.15925 131.564 1.8779C129.666 0.674895 126.435 -0.447523 123.709 0.179644Z" fill="#EB2029"/>
<path fill-rule="evenodd" clip-rule="evenodd" d="M76.7052 69.8677L76.6353 65.1236C77.5056 65.0696 77.792 65.1745 78.4048 65.5347C78.8138 67.6417 79.1466 70.0108 76.7047 69.8681L76.7052 69.8677ZM76.5582 83.5942L76.6371 73.6266L78.1938 73.7261C78.9175 75.5351 77.9345 82.6055 78.7394 83.4834C79.3531 84.0201 84.1841 84.0179 84.8028 83.4897C85.2348 83.089 85.3984 74.8724 84.4709 73.61C84.2084 73.2525 83.982 73.0188 83.6118 72.7626L82.5332 71.9536C82.4957 71.9158 82.4317 71.8478 82.3934 71.7856C84.5904 70.9883 84.9759 70.3809 84.9985 67.4923C85.017 65.1416 84.5353 63.4159 83.0644 62.275C81.3494 60.9446 72.6314 60.8424 69.7476 61.3237L69.7697 83.1278C70.0975 84.026 70.2116 83.6671 72.9466 83.6563C74.147 83.6514 75.3654 83.718 76.5573 83.5942H76.5582Z" fill="#FDFDBE"/>
<path fill-rule="evenodd" clip-rule="evenodd" d="M59.8987 80.1203C58.0881 80.2337 58.4579 78.9983 58.4502 77.2807C58.4435 75.8125 58.4498 74.3429 58.4498 72.8747C58.4502 71.547 57.9646 65.1304 59.1028 64.6554C61.0711 63.8342 60.4231 69.1793 60.4245 71.8959C60.4254 73.9994 60.9097 78.8236 59.8987 80.1203ZM66.9879 79.9708C67.5489 78.5832 67.3356 72.4439 67.3387 70.4282C67.3442 66.7674 67.6666 64.5703 65.4218 62.5326C62.1245 59.539 53.5354 59.9163 51.9589 64.6653C51.3096 66.6206 51.5324 71.6996 51.5305 74.0985C51.5278 77.834 51.2077 80.028 53.3781 82.1355C55.212 83.9161 58.2027 84.3209 61.4355 83.9472C64.243 83.623 66.1433 82.058 66.9875 79.9708H66.9879Z" fill="#FDFDBE"/>
<path fill-rule="evenodd" clip-rule="evenodd" d="M104.016 83.601C103.968 81.9464 100.954 74.6104 100.297 72.4803C99.7253 70.6281 101.119 68.0789 101.702 66.6256C102.1 65.636 103.583 62.2282 103.577 61.1238L97.3317 61.249C96.5773 62.6339 95.6425 66.2001 95.1613 67.4018L94.8714 67.9555C94.8547 67.9191 94.7992 68.0717 94.7587 68.1266L94.5458 67.7043C94.3469 67.1222 94.356 68.0015 94.3875 66.2739L94.3745 61.1468L87.5062 61.267L87.5449 83.637L94.3767 83.5186L94.3713 77.5148C94.3582 76.3658 94.4006 76.1943 94.8497 75.7103C95.215 77.0965 96.4411 82.7536 97.2077 83.4285C98.2674 83.9945 102.486 83.714 104.016 83.601Z" fill="#FDFDBE"/>
<path fill-rule="evenodd" clip-rule="evenodd" d="M124.791 66.3347L124.817 77.2181C124.042 77.6368 124.067 77.2415 123.348 77.8921L123.515 79.0946C124.777 79.1167 133.792 79.4962 134.356 78.8812C134.747 78.3887 134.419 76.9569 134.4 76.0331C134.368 74.5897 134.038 74.5176 132.571 74.6756C131.589 77.6363 134.806 77.4607 127.162 77.4589L127.018 72.5028L128.823 72.4416C128.874 72.5209 128.918 72.5492 128.937 72.6798L129.461 74.1768C131.799 74.6792 131.151 73.4083 131.133 71.6519C131.113 69.738 131.931 68.4467 129.442 68.8497L129.14 69.9244C128.928 70.4759 129.175 70.1455 128.824 70.5687L127.034 70.534L127.201 66.3469C128.447 66.156 130.838 65.9349 131.908 66.3541C131.936 66.423 131.964 66.4513 131.972 66.5688L132.18 69.0361C133.636 69.4935 134.172 69.4314 134.219 68.0091C134.253 66.979 134.37 65.4496 134.295 64.4973L124.135 64.46C123.597 64.5932 123.022 64.7634 123.501 65.6391C123.871 66.314 124.067 65.9268 124.792 66.3343L124.791 66.3347Z" fill="#191917"/>
<path fill-rule="evenodd" clip-rule="evenodd" d="M197.741 74.5874C196.573 69.2571 202.198 68.2149 203.039 72.2034C204.111 77.2892 198.589 78.4625 197.741 74.5874ZM203.129 77.9425C202.597 82.0711 198.003 79.2666 196.413 79.9145C195.682 81.8334 197.975 81.9765 199.644 82.0189C201.638 82.0693 202.929 81.678 204.043 80.6884C206.111 78.852 205.173 73.759 205.303 70.4241L206.962 69.9559C207.162 68.0465 206.171 68.4215 204.554 68.4737C201.568 68.5701 197.472 66.6683 195.782 70.9712C194.939 73.1169 195.499 75.8404 196.772 77.2239C197.37 77.875 198.204 78.3941 199.39 78.5386C201.544 78.802 201.643 78.2095 203.129 77.942V77.9425Z" fill="#191917"/>
<path fill-rule="evenodd" clip-rule="evenodd" d="M160.666 66.2681L160.758 77.2788L159.519 77.6823C159.384 79.6227 160.337 79.1658 161.908 79.1676C163.442 79.1694 164.396 79.5687 164.234 77.7683L162.897 77.1316C162.923 75.5401 162.714 71.258 163.327 70.6146C163.897 70.0176 165.444 69.5156 166.374 69.9091C167.494 70.3832 167.257 71.9383 167.25 73.1174C167.243 74.4928 167.279 75.8696 167.23 77.2446C166.48 77.5981 166.494 77.2856 165.691 77.8452C165.57 79.6308 166.506 79.1509 168.523 79.1536C169.448 79.1545 170.587 79.5133 170.923 78.6336C171.394 77.4009 169.902 77.4166 169.422 77.0344C169.416 73.2858 170.126 69.0865 167.448 68.2869C165.093 67.5837 164.502 68.4855 163.004 68.8452L162.907 64.3762C161.042 64.3996 157.222 64.2628 160.666 66.2685L160.666 66.2681Z" fill="#191917"/>
<path fill-rule="evenodd" clip-rule="evenodd" d="M178.899 73.7828C179.258 75.4536 179.131 76.4108 177.961 77.1469C174.431 79.3688 172.475 75.5612 174.838 74.0701C175.801 73.4627 177.663 73.5555 178.899 73.7828ZM178.888 71.9594C176.556 71.9144 174.94 71.5497 173.118 72.8117C169.802 75.1097 172.027 80.8541 177.233 79.3481C177.625 79.2346 178.308 78.8785 178.439 78.8511C179.682 78.5904 178.566 78.8015 179.656 79.0717C180.575 79.2995 181.862 79.2495 182.823 79.0771C183.521 77.1388 182.517 77.6805 181.194 77.3716L181.129 72.1409C181.163 64.7175 169.249 69.1923 172.344 71.0117C173.181 71.5038 173.741 70.6223 174.478 70.2382C176.086 69.3999 178.89 69.3729 178.887 71.9599L178.888 71.9594Z" fill="#191917"/>
<path fill-rule="evenodd" clip-rule="evenodd" d="M210.187 72.5978C210.309 69.0059 216.032 68.8569 216.078 72.6469L213.862 72.6843L212.391 72.7014L210.187 72.5978ZM210.108 74.5262L218.418 74.4798C219.584 70.5106 215.222 67.0821 211.318 68.3391C206.087 70.0234 206.226 79.7321 213.867 79.539C219.655 79.3927 219.331 74.7904 216.511 76.7363C213.119 79.0771 210.181 77.2257 210.109 74.5262H210.108Z" fill="#191917"/>
<path fill-rule="evenodd" clip-rule="evenodd" d="M50.8036 42.3353C50.5276 38.0802 57.0414 38.2306 57.0374 42.3579L50.8036 42.3353ZM59.3945 46.513C57.2665 45.3181 57.4022 47.8443 54.0734 47.6836C52.1217 47.5891 50.4149 46.1587 50.6237 44.0093L59.4003 43.9791C60.4375 36.8624 49.8936 35.0241 48.4686 41.832C47.6961 45.5221 49.4336 48.0087 52.0748 48.9645C54.4535 49.8253 59.6258 48.9568 59.3945 46.513Z" fill="#191917"/>
<path fill-rule="evenodd" clip-rule="evenodd" d="M183.444 68.6741C183.307 71.692 184.524 68.1055 184.524 72.6298L184.505 76.7787C184.101 78.3171 183.827 76.7534 183.49 78.0717C183.138 79.4427 184.59 79.1752 186.188 79.1946C187.053 79.2054 188.064 79.3936 187.946 78.2833C187.661 75.6108 186.734 80.9009 186.775 73.1188L186.797 70.8208C192.075 67.7439 191.16 71.7037 191.174 75.5657C191.176 75.7211 191.205 76.4734 191.19 76.5634C190.943 78.1172 191.143 77.006 190.728 77.391C190.188 77.893 189.525 77.309 190.171 78.8974C190.832 79.4174 192.113 79.1689 193.048 79.186C194.548 79.2135 195.02 79.4003 194.957 77.7615C194.12 77.2843 194.112 77.6809 193.35 77.2406C193.275 73.3376 194.053 69.6732 191.869 68.4305C190.614 67.7156 188.967 67.9637 187.743 68.5967C186.821 69.0735 186.933 68.6484 185.916 68.508C185.084 68.3932 184.005 68.4729 183.444 68.6737L183.444 68.6741Z" fill="#191917"/>
<path fill-rule="evenodd" clip-rule="evenodd" d="M135.91 68.7151C135.683 70.6601 136.554 69.5611 137.805 70.9968C138.454 71.742 139.343 72.6685 139.696 73.6086C139.24 74.5163 138.514 75.1479 137.83 75.9989C136.387 77.7939 136.995 76.8471 135.489 77.7597C135.409 79.7565 136.353 79.1833 138.402 79.2C139.078 79.2054 139.796 79.3873 140.063 78.6494C140.465 77.5409 139.783 78.0208 139.499 77.0344L141.015 75.1975C141.853 75.7031 141.826 75.8895 142.625 77.0344C142.386 78.0744 141.224 79.1297 143.5 79.1995C144.488 79.2297 147.182 79.5683 146.725 78.0798C146.286 76.6481 146.489 78.6066 144.473 76.1024C143.815 75.2857 142.957 74.469 142.535 73.6086C142.865 72.6874 143.781 71.805 144.41 71.0617C145.677 69.5674 146.755 70.5453 146.328 68.5953C145.729 68.4224 143.654 68.3549 143.006 68.4274C141.147 68.6354 142.271 69.4481 142.548 70.462C141.904 71.0256 141.827 71.5457 141.077 71.932L139.797 70.5363C140.058 69.4526 140.931 68.6102 139.152 68.4094C138.209 68.3022 136.577 68.2941 135.91 68.7155V68.7151Z" fill="#191917"/>
<path fill-rule="evenodd" clip-rule="evenodd" d="M22.9436 38.1032C22.7578 39.806 22.9188 39.1973 24.0398 39.8429L24.084 47.1267C22.8998 47.8466 22.7515 46.8831 22.926 48.6516C23.7363 49.1739 26.3549 48.8799 27.4458 48.8425C27.4863 46.7318 27.4074 47.9623 26.2079 47.1834L26.1583 40.5772C26.9718 39.6988 28.753 38.5237 30.2804 39.3918C31.4961 40.0833 31.0114 44.9674 30.9996 47.1681C29.2843 47.9618 29.3862 47.1384 30.0076 48.6998L34.7546 48.7182L34.7912 47.5976C32.9116 46.9547 33.0456 48.4161 33.0483 44.2475C33.0465 41.1364 33.7139 38.349 30.7426 37.6759C28.5253 37.1735 28.3048 37.9434 26.993 38.2815C25.8981 38.5638 26.6571 38.1928 25.1663 38.0577C24.5295 38.0001 23.5794 38.0406 22.944 38.1037L22.9436 38.1032Z" fill="#191917"/>
<path fill-rule="evenodd" clip-rule="evenodd" d="M158.409 76.3586C155.891 74.7661 156.966 77.5143 153.829 77.7592C148.427 78.1811 148.774 70.5137 152.437 69.8204C155.997 69.1468 156.199 72.0558 156.584 72.7838C159.393 73.225 157.975 71.5362 158.234 69.7114C158.352 68.8758 158.724 68.2338 157.518 68.119C155.827 67.9578 157.049 68.7551 155.077 68.2658C146.302 66.0875 145.346 77.2892 150.918 79.2031C153.582 80.1184 158.581 79.0802 158.409 76.359V76.3586Z" fill="#191917"/>
<path fill-rule="evenodd" clip-rule="evenodd" d="M35.6759 38.087L35.7016 39.3602C36.7216 39.7979 37.4088 39.1806 37.7579 40.1698C38.2778 41.6425 36.7662 46.6575 38.8915 48.3936C41.4389 50.475 46.7853 49.1482 46.8529 45.8143C44.7641 45.0592 45.3039 45.5203 44.1161 46.7831C43.4672 47.4733 42.0761 48.1005 40.7652 47.4796C39.1666 46.7224 39.9156 39.9856 40.082 39.81C41.489 38.9618 45.0834 40.3075 45.3427 38.7781C45.5772 37.3946 41.3424 38.0676 39.9846 37.757C39.5833 36.486 39.9882 35.6544 39.7817 34.2916C37.4945 33.5203 37.8354 34.7553 37.8084 35.9255C37.7574 38.114 37.2524 37.5458 35.6759 38.0866V38.087Z" fill="#191917"/>
<path fill-rule="evenodd" clip-rule="evenodd" d="M14.6218 35.5887C15.4281 36.0331 15.1982 35.6459 15.158 38.3742C15.1355 39.8942 15.4092 45.8408 14.9064 46.984C14.3905 48.1581 12.1489 46.7224 11.527 47.8083C10.6905 49.2693 13.2853 48.924 14.1281 48.9042C18.8999 48.7925 21.1041 49.7434 20.9909 47.6683C19.6097 46.9988 18.2519 47.9636 17.4254 47.0645C16.6511 46.16 17.1602 42.7225 17.1575 41.3106C17.1462 35.4559 16.2736 35.2389 19.5403 35.2555C21.0351 35.2632 20.9562 35.2375 20.995 33.9715C19.6214 33.6135 15.3731 33.7801 13.1265 33.7094C11.831 33.6689 11.4179 33.6104 11.5122 34.9489C12.4682 35.6207 12.7189 35.2037 13.8981 35.3285C15.112 35.4572 14.5082 35.2128 14.6205 35.5882L14.6218 35.5887Z" fill="#191917"/>
<path fill-rule="evenodd" clip-rule="evenodd" d="M65.1052 39.1C64.5159 38.7389 65.0155 38.9019 64.3702 38.0303C62.3694 38.0888 60.6716 37.3563 61.0274 39.353L62.6652 39.7875L62.694 47.2082L61.0716 47.3729C60.5692 49.3418 61.4963 48.9451 63.1373 48.9028C63.4652 48.8943 70.825 49.2887 68.3926 47.5836C67.3433 46.848 65.8962 48.1037 64.9907 47.0542C64.344 46.3365 64.4635 42.42 65.103 41.5484C65.8588 40.5173 67.5534 38.7858 69.156 39.4534C70.1044 40.1247 69.5898 40.457 70.0642 41.4885L71.8567 41.5438C72.3514 39.7506 71.2944 38.0442 69.6868 37.6895C67.0438 37.1064 66.5559 38.6205 65.1057 39.1005L65.1052 39.1Z" fill="#191917"/>
<path fill-rule="evenodd" clip-rule="evenodd" d="M197.741 74.5874C198.589 78.463 204.111 77.2892 203.039 72.2034C202.198 68.2149 196.573 69.2571 197.741 74.5874Z" fill="#FECF1D"/>
<path fill-rule="evenodd" clip-rule="evenodd" d="M59.8986 80.1202C60.9096 78.8236 60.4258 73.9994 60.4244 71.8959C60.4231 69.1788 61.0711 63.8342 59.1027 64.6554C57.9645 65.1304 58.4502 71.547 58.4498 72.8747C58.4498 74.3429 58.4434 75.8125 58.4502 77.2807C58.4574 78.9983 58.0877 80.2333 59.8986 80.1202Z" fill="#191917"/>
<path fill-rule="evenodd" clip-rule="evenodd" d="M178.899 73.7828C177.663 73.555 175.801 73.4623 174.838 74.0701C172.475 75.5612 174.431 79.3688 177.961 77.1469C179.131 76.4108 179.259 75.4541 178.899 73.7828Z" fill="#FECF1D"/>
<path fill-rule="evenodd" clip-rule="evenodd" d="M50.8036 42.3353L57.0374 42.3579C57.0414 38.2306 50.5276 38.0802 50.8036 42.3353Z" fill="#FEFED5"/>
<path fill-rule="evenodd" clip-rule="evenodd" d="M210.187 72.5978L212.391 72.7014L213.862 72.6843L216.078 72.6469C216.032 68.8569 210.309 69.0055 210.187 72.5978Z" fill="#FECF1D"/>
<path fill-rule="evenodd" clip-rule="evenodd" d="M76.7052 69.8677C79.1471 70.0104 78.8143 67.6413 78.4053 65.5342C77.7924 65.1745 77.5056 65.0691 76.6358 65.1232L76.7057 69.8672L76.7052 69.8677Z" fill="#191917"/>
</g>
<defs>
<clipPath id="clip0">
<rect width="244" height="121" fill="white"/>
</clipPath>
</defs>
</svg>
