<svg width="18" height="18" viewBox="0 0 18 18" fill="none" xmlns="http://www.w3.org/2000/svg">
<path d="M16 0H2C0.89 0 0 0.9 0 2V16C0 17.1 0.89 18 2 18H16C17.11 18 18 17.1 18 16V2C18 0.9 17.11 0 16 0ZM7.35355 13.6464C7.15829 13.8417 6.84171 13.8417 6.64645 13.6464L2.35355 9.35355C2.15829 9.15829 2.15829 8.84171 2.35355 8.64645L3.05694 7.94306C3.25201 7.74799 3.56821 7.74777 3.76355 7.94257L6.64645 10.8174C6.84179 11.0122 7.15799 11.012 7.35306 10.8169L14.2352 3.9348C14.4309 3.73905 14.7485 3.73962 14.9435 3.93606L15.6489 4.64645C15.843 4.84191 15.8425 5.15753 15.6477 5.35231L7.35355 13.6464Z" fill="#27AE60"/>
</svg>
