<svg width="157" height="56" viewBox="0 0 157 56" fill="none" xmlns="http://www.w3.org/2000/svg">
<g filter="url(#filter0_d_427_132)">
<path d="M11.9061 27.1554C10.655 23.7519 12.5515 20.0303 16.1411 18.8441C19.7306 17.6578 23.6558 19.456 24.9069 22.8595L25.1922 23.6311L29.8071 13.5881C31.3271 10.2833 35.3844 8.77112 38.8699 10.2123C40.529 10.8986 41.7591 12.1302 42.429 13.5881L47.0452 23.6311L53.4292 6.39644C54.6803 2.99186 58.6054 1.19478 62.195 2.38101C65.7846 3.56724 67.6811 7.28889 66.43 10.6924L54.2676 43.5254C53.6724 45.2227 52.35 46.6838 50.4839 47.4543C46.9984 48.8955 42.9412 47.3834 41.4212 44.0786L36.1175 32.5378L30.8138 44.0786L30.8127 44.0775C30.0725 45.6861 28.6554 47.0098 26.7683 47.6328C23.1787 48.819 19.2536 47.0208 18.0025 43.6174L11.9038 27.1543L11.9061 27.1554Z" fill="#FFCB00"/>
<path fill-rule="evenodd" clip-rule="evenodd" d="M13.9625 0C12.9183 1.06962 11.7889 1.25903 10.6583 2.4423C9.95148 1.94649 9.24588 0.668513 8.53909 0.933689C8.36387 2.37656 7.56592 3.15426 7.3907 4.73753C6.50988 4.72638 5.14011 4.08461 4.73403 4.68962C5.49291 5.95422 5.33427 7.02495 6.17958 8.40209C5.45976 8.88119 3.95148 9.11851 4.0012 9.8327C5.4053 10.4355 5.94516 11.3892 7.49015 12.0366C7.2072 12.8221 6.13459 13.8494 6.62117 14.3986C8.13419 14.1101 9.16537 14.5836 10.8193 14.2516C11.0809 15.0438 10.8548 16.4677 11.5912 16.6437C12.6354 15.5741 13.7648 15.3847 14.8954 14.2014C15.6022 14.6972 16.3078 15.9752 17.0146 15.71C17.1898 14.2672 17.9878 13.4895 18.163 11.9062C19.0438 11.9173 20.4136 12.5591 20.8197 11.9541C20.0608 10.6895 20.2194 9.61878 19.3741 8.24164C20.0939 7.76254 21.6022 7.52522 21.5525 6.81103C20.1484 6.20825 19.6086 5.25451 18.0636 4.60717C18.3465 3.82166 19.4191 2.79438 18.9325 2.24509C17.4195 2.53366 16.3883 2.06013 14.7344 2.39216C14.4728 1.59997 14.6989 0.176042 13.9625 0Z" fill="#FFCB00"/>
</g>
<path d="M75.8834 16.0687C75.8834 15.5114 76.3606 15.0596 76.9493 15.0596C77.538 15.0596 78.0152 15.5114 78.0152 16.0687V33.9835C78.0152 34.5408 77.538 34.9926 76.9493 34.9926C76.3606 34.9926 75.8834 34.5408 75.8834 33.9835V16.0687Z" fill="#333333"/>
<path fill-rule="evenodd" clip-rule="evenodd" d="M156.622 34.7778C157.073 34.4475 157.128 33.856 156.744 33.4568L148.642 25.0274L156.744 16.5976C157.128 16.1983 157.074 15.6068 156.623 15.2765C156.172 14.9461 155.495 15.002 155.111 15.4013L147.25 23.5797L139.389 15.4012C139.006 15.002 138.329 14.9461 137.878 15.2764C137.427 15.6068 137.373 16.1982 137.756 16.5975L145.859 25.0274L137.757 33.4568C137.373 33.8561 137.427 34.4476 137.878 34.7779C138.329 35.1083 139.006 35.0524 139.39 34.6531L147.25 26.4751L155.111 34.6531C155.495 35.0523 156.171 35.1082 156.622 34.7778Z" fill="#333333"/>
<path fill-rule="evenodd" clip-rule="evenodd" d="M133.536 15.9899C133.536 15.4761 133.096 15.0596 132.553 15.0596L119.596 15.0596C119.053 15.0596 118.613 15.4761 118.613 15.9899C118.613 16.0033 118.613 16.0166 118.614 16.0299C118.613 16.043 118.613 16.0561 118.613 16.0693V24.1237L118.613 24.1366L118.613 24.1495V33.9841C118.613 33.997 118.613 34.0098 118.614 34.0226C118.613 34.0355 118.613 34.0486 118.613 34.0617C118.613 34.5755 119.053 34.992 119.596 34.992H119.626C119.643 34.9928 119.661 34.9932 119.679 34.9932C119.697 34.9932 119.714 34.9928 119.732 34.992H132.553C133.096 34.992 133.536 34.5755 133.536 34.0617C133.536 33.5479 133.096 33.1313 132.553 33.1313L120.745 33.1313V25.0669L132.553 25.0669C133.096 25.0669 133.536 24.6504 133.536 24.1366C133.536 23.6228 133.096 23.2063 132.553 23.2063L120.745 23.2063V16.9202L132.553 16.9202C133.096 16.9202 133.536 16.5037 133.536 15.9899Z" fill="#333333"/>
<path fill-rule="evenodd" clip-rule="evenodd" d="M82.6776 15.0749C82.1244 15.2506 81.8497 15.8096 82.064 16.3235L89.5532 34.2824C89.6987 34.6312 90.0321 34.8695 90.4043 34.9317C90.9252 35.0373 91.4765 34.767 91.6753 34.2892L98.3156 18.3337L104.967 34.2824C105.112 34.63 105.443 34.8679 105.814 34.931C106.336 35.0384 106.889 34.7679 107.088 34.2892L114.564 16.3254C114.778 15.8114 114.503 15.252 113.95 15.076C113.397 14.8999 112.775 15.1738 112.561 15.6878L106.028 31.3867L99.4806 15.6871C99.2943 15.2402 98.7995 14.9747 98.3098 15.0286C97.8231 14.9786 97.3334 15.2435 97.1485 15.6878L90.6147 31.3875L84.0673 15.6871C83.853 15.1733 83.2308 14.8992 82.6776 15.0749Z" fill="#333333"/>
<defs>
<filter id="filter0_d_427_132" x="0" y="0" width="70.8152" height="56" filterUnits="userSpaceOnUse" color-interpolation-filters="sRGB">
<feFlood flood-opacity="0" result="BackgroundImageFix"/>
<feColorMatrix in="SourceAlpha" type="matrix" values="0 0 0 0 0 0 0 0 0 0 0 0 0 0 0 0 0 0 127 0" result="hardAlpha"/>
<feOffset dy="4"/>
<feGaussianBlur stdDeviation="2"/>
<feComposite in2="hardAlpha" operator="out"/>
<feColorMatrix type="matrix" values="0 0 0 0 0 0 0 0 0 0 0 0 0 0 0 0 0 0 0.25 0"/>
<feBlend mode="normal" in2="BackgroundImageFix" result="effect1_dropShadow_427_132"/>
<feBlend mode="normal" in="SourceGraphic" in2="effect1_dropShadow_427_132" result="shape"/>
</filter>
</defs>
</svg>
