<?xml version="1.0" standalone="no"?>
<!DOCTYPE svg PUBLIC "-//W3C//DTD SVG 20010904//EN"
 "http://www.w3.org/TR/2001/REC-SVG-20010904/DTD/svg10.dtd">
<svg version="1.0" xmlns="http://www.w3.org/2000/svg"
 width="700.000000pt" height="700.000000pt" viewBox="0 0 700.000000 700.000000"
 preserveAspectRatio="xMidYMid meet">
<metadata>
Created by potrace 1.11, written by Peter Selinger 2001-2013
</metadata>
<g transform="translate(0.000000,700.000000) scale(0.100000,-0.100000)"
fill="#000000" stroke="none">
<path d="M3530 5003 c-80 -20 -135 -65 -170 -138 -54 -111 8 -247 138 -302 55
-24 175 -22 232 4 99 44 150 114 150 205 -1 167 -168 278 -350 231z"/>
<path d="M4452 4690 c-269 -129 -529 -202 -802 -228 -138 -13 -487 -6 -610 12
-150 22 -165 25 -230 37 -30 6 -62 12 -70 13 -21 3 -157 45 -203 62 -35 13
-37 13 -28 -3 18 -34 147 -158 221 -214 79 -60 212 -134 293 -164 26 -10 50
-22 53 -27 20 -33 -195 -253 -346 -355 -63 -42 -160 -94 -160 -85 0 4 -447 7
-993 7 l-992 0 -41 -23 c-72 -42 -69 -18 -72 -507 -2 -405 -1 -443 15 -474 10
-19 31 -44 46 -55 l28 -21 1587 -2 c1926 -2 1724 1 1748 -20 11 -10 51 -45 89
-78 39 -33 72 -62 75 -65 4 -5 294 -253 400 -343 216 -183 226 -188 304 -162
31 11 142 95 251 190 62 55 83 72 175 150 160 136 122 123 340 121 105 -2 190
1 190 6 0 5 4 6 10 3 5 -3 20 4 33 17 38 37 95 87 202 178 55 47 105 90 111
95 6 6 39 35 74 65 34 30 68 60 74 65 6 6 45 39 86 75 41 36 80 70 86 75 6 6
39 35 74 65 35 30 77 67 94 83 l31 27 -36 33 c-19 17 -53 47 -75 66 -21 19
-68 60 -104 91 -36 32 -144 126 -240 210 -185 161 -193 168 -310 271 -41 36
-84 71 -95 76 -11 5 -103 9 -204 8 l-183 -2 -67 56 c-36 31 -75 65 -87 76 -11
11 -45 41 -75 66 -97 82 -223 190 -252 215 -43 39 -104 66 -146 67 -41 1 -87
-24 -147 -80 -16 -15 -70 -62 -120 -103 -49 -41 -91 -77 -94 -80 -3 -3 -75
-64 -160 -135 -177 -149 -186 -156 -258 -219 -101 -88 -41 -81 -628 -81 -288
0 -520 3 -516 6 4 4 57 21 117 39 467 136 801 272 1111 455 184 109 365 264
498 426 70 85 68 86 -72 19z"/>
<path d="M756 4155 c-5 -15 9 -21 64 -27 l25 -3 2 -128 c2 -163 1 -167 -47
-167 -25 0 -40 -5 -44 -15 -8 -23 9 -26 125 -23 84 2 104 6 104 18 0 10 -12
16 -38 18 -28 2 -40 9 -46 25 -9 24 -8 263 0 272 3 3 24 6 47 7 34 1 42 5 42
20 0 16 -10 18 -114 18 -92 0 -115 -3 -120 -15z"/>
<path d="M1415 4151 c-3 -6 -4 -15 -1 -20 9 -15 -12 -61 -28 -61 -12 0 -32
-30 -24 -34 2 -1 15 -7 30 -14 27 -11 28 -13 24 -79 -7 -118 22 -163 107 -163
65 0 128 47 113 85 -6 17 -35 13 -50 -7 -30 -41 -89 -49 -108 -15 -12 22 -16
163 -4 174 3 3 31 7 62 8 67 3 90 19 50 35 -15 5 -47 10 -72 10 -28 0 -45 5
-45 13 -1 6 -2 26 -3 42 -1 23 -6 31 -23 33 -11 2 -24 -2 -28 -7z"/>
<path d="M1165 4066 c-17 -7 -39 -10 -49 -6 -47 16 -106 -19 -61 -36 23 -9 22
-194 -1 -194 -9 0 -14 -7 -12 -17 2 -14 15 -19 52 -21 58 -4 75 8 49 33 -14
14 -18 36 -19 97 -1 72 1 81 21 94 32 21 61 24 81 9 15 -10 18 -29 20 -99 2
-75 -1 -88 -17 -96 -35 -19 -11 -35 51 -35 44 0 60 4 60 13 0 8 -9 16 -20 19
-24 6 -22 -4 -23 110 -2 78 -5 96 -22 112 -26 26 -72 33 -110 17z"/>
<path d="M1780 4069 c-128 -27 -131 -237 -5 -279 63 -21 169 7 182 47 7 21
-28 22 -67 2 -66 -35 -139 -11 -143 46 l-2 30 105 0 c100 0 105 1 108 21 5 33
-23 90 -52 109 -35 23 -84 33 -126 24z"/>
<path d="M2140 4058 c-34 -17 -41 -18 -54 -5 -12 12 -33 14 -78 8 -17 -2 -7
-33 12 -38 18 -5 20 -14 20 -99 0 -86 -2 -94 -19 -94 -19 0 -35 -23 -24 -34
10 -10 167 -7 183 4 22 14 2 28 -45 32 -46 4 -55 24 -44 97 11 78 109 138 125
77 7 -31 29 -40 49 -20 14 15 14 19 -3 47 -24 42 -68 51 -122 25z"/>
</g>
</svg>
