<svg width="524" height="346" viewBox="0 0 524 346" fill="none" xmlns="http://www.w3.org/2000/svg">
<path d="M61.968 182.056C91.152 182.056 112.368 187.336 125.616 197.896C139.056 208.264 145.776 222.856 145.776 241.672C145.776 253.384 142.992 263.848 137.424 273.064C132.048 282.28 123.888 289.576 112.944 294.952C102 300.136 88.56 302.728 72.624 302.728C58.224 302.728 44.496 300.424 31.44 295.816C18.576 291.016 8.208 284.68 0.336001 276.808L10.416 260.392C17.136 267.304 25.968 272.968 36.912 277.384C47.856 281.608 59.664 283.72 72.336 283.72C89.04 283.72 101.904 279.976 110.928 272.488C120.144 265 124.752 255.016 124.752 242.536C124.752 228.712 119.568 218.248 109.2 211.144C99.024 204.04 81.744 200.488 57.36 200.488H14.448L24.816 99.4H135.12V117.832H42.96L36.048 182.056H61.968ZM252.453 302.728C236.901 302.728 222.981 298.6 210.693 290.344C198.597 282.088 189.093 270.28 182.181 254.92C175.461 239.368 172.101 221.128 172.101 200.2C172.101 179.272 175.461 161.128 182.181 145.768C189.093 130.216 198.597 118.312 210.693 110.056C222.981 101.8 236.901 97.672 252.453 97.672C268.005 97.672 281.829 101.8 293.925 110.056C306.213 118.312 315.813 130.216 322.725 145.768C329.637 161.128 333.093 179.272 333.093 200.2C333.093 221.128 329.637 239.368 322.725 254.92C315.813 270.28 306.213 282.088 293.925 290.344C281.829 298.6 268.005 302.728 252.453 302.728ZM252.453 283.72C264.165 283.72 274.437 280.456 283.269 273.928C292.293 267.4 299.301 257.896 304.293 245.416C309.285 232.936 311.781 217.864 311.781 200.2C311.781 182.536 309.285 167.464 304.293 154.984C299.301 142.504 292.293 133 283.269 126.472C274.437 119.944 264.165 116.68 252.453 116.68C240.741 116.68 230.373 119.944 221.349 126.472C212.517 133 205.605 142.504 200.613 154.984C195.621 167.464 193.125 182.536 193.125 200.2C193.125 217.864 195.621 232.936 200.613 245.416C205.605 257.896 212.517 267.4 221.349 273.928C230.373 280.456 240.741 283.72 252.453 283.72ZM443.141 302.728C427.589 302.728 413.669 298.6 401.381 290.344C389.285 282.088 379.781 270.28 372.869 254.92C366.149 239.368 362.789 221.128 362.789 200.2C362.789 179.272 366.149 161.128 372.869 145.768C379.781 130.216 389.285 118.312 401.381 110.056C413.669 101.8 427.589 97.672 443.141 97.672C458.693 97.672 472.517 101.8 484.613 110.056C496.901 118.312 506.501 130.216 513.413 145.768C520.325 161.128 523.781 179.272 523.781 200.2C523.781 221.128 520.325 239.368 513.413 254.92C506.501 270.28 496.901 282.088 484.613 290.344C472.517 298.6 458.693 302.728 443.141 302.728ZM443.141 283.72C454.853 283.72 465.125 280.456 473.957 273.928C482.981 267.4 489.989 257.896 494.981 245.416C499.973 232.936 502.469 217.864 502.469 200.2C502.469 182.536 499.973 167.464 494.981 154.984C489.989 142.504 482.981 133 473.957 126.472C465.125 119.944 454.853 116.68 443.141 116.68C431.429 116.68 421.061 119.944 412.037 126.472C403.205 133 396.293 142.504 391.301 154.984C386.309 167.464 383.812 182.536 383.812 200.2C383.812 217.864 386.309 232.936 391.301 245.416C396.293 257.896 403.205 267.4 412.037 273.928C421.061 280.456 431.429 283.72 443.141 283.72Z" fill="#FECF1D"/>
<g clip-path="url(#clip0)">
<path fill-rule="evenodd" clip-rule="evenodd" d="M242.052 315.842C240.43 315.234 239.556 314.332 238.078 313.639C235.472 312.416 233.35 310.8 230.779 309.485L183.2 281.86L183.18 253.852C184.295 254.082 196.036 261.095 198.011 262.233C207.689 267.811 217.816 273.992 227.359 279.277C232.279 282.001 237.062 285.131 242.08 287.821L242.103 265.081C240.706 264.798 209.686 246.633 204.963 243.767L186.733 233.042C185.561 232.455 184.212 231.416 183.199 231.021L183.18 213.797C184.836 214.36 195.687 220.838 198.02 222.218C212.504 230.784 227.739 239.29 242.092 247.833L242.107 240.682C240.187 240.128 192.761 212.264 186.731 208.569C185.639 207.901 184.206 207.362 183.206 206.482L183.19 189.45C184.581 189.74 209.226 204.4 212.658 206.385C217.632 209.263 222.563 212.198 227.364 214.867L242.106 223.404L242.101 216.241C240.631 215.973 235.776 212.874 234.472 212.068C232.184 210.654 229.567 209.173 227.231 207.846C215.594 201.239 201.577 193.274 190.43 186.518C189.754 186.109 189.276 185.678 188.705 185.31L183.208 182.249L183.19 165.062C184.289 165.253 209.61 180.149 212.614 181.967L242.119 199.045L242.089 191.883C240.414 191.508 216.248 177.086 212.509 174.927L183.2 157.85L183.231 140.654L220.059 161.859C222.379 163.241 225.059 164.758 227.292 166.077C229.907 167.623 232.181 168.834 234.72 170.421C236.869 171.763 240.043 173.644 242.128 174.628L242.101 162.377C240.062 161.84 182.205 127.266 174.086 123.184L174.055 297.315C176.775 298.717 179.617 300.465 182.369 302.119C185.141 303.785 188.097 305.457 190.883 307.053C195.103 309.47 239.659 335.653 242.012 336.677L242.052 315.842L242.052 315.842Z" fill="#3C3C3C"/>
<path fill-rule="evenodd" clip-rule="evenodd" d="M168.843 113.766C171.847 115.693 175.449 117.618 178.543 119.384C181.935 121.32 184.97 123.139 188.313 125.107C191.424 126.939 195.093 128.849 198.116 130.738C201.561 132.89 204.569 134.57 208.066 136.552L232.716 150.866C234.623 152.015 246.546 159.221 247.707 159.163C248.799 158.847 280.695 140.061 289.481 134.962L290.598 134.315C291.274 133.926 291.664 133.706 291.704 133.694C292.243 133.531 291.779 133.488 292.6 133.625L292.198 133.389L337.231 107.331L337.266 107.318L337.257 107.316L340.997 105.151L261.918 59.235L250.483 65.8746L250.638 66.0042L223.024 82.0376L213.282 87.6941C212.689 87.8428 212.152 88.3394 211.169 88.9047L191.622 100.272L184.181 104.599C182.986 105.267 169.759 112.566 168.843 113.766L168.843 113.766Z" fill="#BABDC1"/>
<path fill-rule="evenodd" clip-rule="evenodd" d="M242.129 174.627L242.089 191.883L242.119 199.044L242.101 216.24L242.106 223.403L242.107 240.682L242.092 247.833L242.104 265.081L242.08 287.82L242.052 315.842L242.013 336.677C239.66 335.653 195.104 309.47 190.883 307.052C188.098 305.456 185.142 303.785 182.369 302.119C179.617 300.465 176.776 298.717 174.056 297.315L174.087 123.184C182.205 127.266 240.063 161.84 242.102 162.376L242.129 174.627L242.129 174.627ZM247.794 345.954C247.518 345.582 247.505 346.091 247.46 344.507L247.498 182.331C247.498 181.081 247.097 160.479 247.707 159.163C246.546 159.221 234.624 152.015 232.716 150.866L208.066 136.552C204.57 134.57 201.561 132.89 198.116 130.738C195.093 128.849 191.425 126.939 188.313 125.107C184.97 123.139 181.935 121.32 178.543 119.384C175.449 117.618 171.847 115.693 168.843 113.766L168.599 115.022C168.583 115.461 168.61 116.031 168.613 116.486C168.62 117.445 168.615 118.406 168.615 119.365L168.609 300.448C174.583 303.67 182.368 308.461 188.526 312.034L242.911 343.594C244.319 344.409 246.883 346.319 247.794 345.954H247.794Z" fill="#A4A8AB"/>
<path fill-rule="evenodd" clip-rule="evenodd" d="M242.052 315.842L242.08 287.821C237.063 285.131 232.279 282.001 227.359 279.277C217.816 273.992 207.689 267.812 198.011 262.233C196.036 261.095 184.295 254.082 183.181 253.852L183.2 281.86L230.78 309.485C233.351 310.8 235.472 312.416 238.078 313.639C239.556 314.332 240.43 315.234 242.052 315.842H242.052Z" fill="#57565B"/>
<path fill-rule="evenodd" clip-rule="evenodd" d="M224.338 199.294C223.647 195.073 225.294 190.937 230.342 193.826C230.397 193.857 230.47 193.897 230.526 193.927C233.606 195.565 235.999 199.343 236.533 202.865C237.766 210.997 230.513 210.707 226.382 204.364C225.477 202.974 225.56 202.834 225.048 201.437C224.986 201.265 224.857 201 224.777 200.812C224.372 199.854 224.479 200.16 224.338 199.294H224.338ZM216.863 195.743C215.978 194.965 216.165 195.498 216.263 194.274C216.323 193.535 216.528 193.436 216.469 192.408C216.399 191.184 215.817 190.064 215.468 189.266C216.144 190.826 216.936 192.52 216.147 194.233L215.764 194.23C214.613 193.862 214.839 193.605 214.807 192.79C214.761 191.631 214.993 191.759 214.614 190.46C215.032 192.516 214.708 192.299 214.171 193.646C212.856 193.573 212.508 193.518 211.764 192.697C212.219 193.041 212.687 193.514 213.483 193.578C214.451 193.655 214.583 192.857 215.469 194.156C216.352 195.451 214.867 196.408 212.33 194.991C215.379 196.543 214.701 194.875 216.496 195.364C216.845 196.093 216.648 195.686 216.826 196.676C214.883 197.43 213.702 197.441 212.008 196.149C212.75 196.588 213.339 197.147 214.59 197.201C215.575 197.242 215.372 197.159 216.035 196.929C217.393 196.459 217.052 196.53 217.646 196.776C218.099 199.081 215.123 199.061 213.274 198.313C208.116 196.229 204.751 187.166 207.081 183.994C210.532 179.295 218.941 186.821 218.836 194.405C218.791 197.676 217.938 197.017 217.598 197.131C217.133 196.064 217.188 197.148 217.324 195.624C217.363 195.187 217.558 194.768 217.625 194.103C217.739 192.973 217.542 191.833 217.187 190.83C216.494 188.87 215.53 187.59 214.567 186.397C215.982 187.528 217.445 190.724 217.595 192.966C217.613 193.242 217.626 194.178 217.586 194.419C217.505 194.9 217.508 194.866 217.355 195.16C216.919 195.996 217.37 195.306 216.864 195.744L216.863 195.743ZM190.936 172.456C191.864 172.039 193.005 172.184 193.913 172.63C194.58 172.958 194.386 172.938 194.992 173.29C195.556 173.618 195.335 173.428 196.055 173.906C197.197 174.663 198.464 176.293 199.352 177.81C200.599 179.943 202.119 184.241 200.232 186.872C197.624 190.51 193.017 186.989 191.579 184.754C191.108 184.022 190.646 183.492 190.184 182.68C188.911 180.44 187.004 174.228 190.936 172.456ZM242.101 216.24L242.119 199.044L212.614 181.966C209.61 180.148 184.289 165.252 183.191 165.062L183.208 182.248L188.705 185.31C189.276 185.677 189.754 186.108 190.43 186.518C201.578 193.274 215.594 201.238 227.231 207.846C229.567 209.173 232.184 210.654 234.472 212.067C235.776 212.874 240.631 215.973 242.101 216.24Z" fill="#57565B"/>
<path fill-rule="evenodd" clip-rule="evenodd" d="M226.166 241.92C227.262 241.422 228.408 241.554 229.506 242.087L231.649 243.349C232.742 244.145 233.952 245.614 234.787 247.118C235.683 248.73 236.446 250.527 236.597 252.494C237.344 262.243 225.417 257.633 224.133 247.034C223.858 244.77 224.627 242.619 226.166 241.92H226.166ZM208.437 231.537C209.462 231.117 210.751 231.259 211.753 231.733L213.923 233.005C217.324 235.792 220.66 242.355 217.718 246.431C216.997 247.429 217.851 246.813 216.784 247.301C214.068 248.542 210.672 245.557 209.361 243.921C206.667 240.561 204.697 233.07 208.437 231.537ZM190.628 221.395C192.983 220.448 193.194 221.05 194.855 222.006C196.974 223.227 195.473 221.685 197.006 223.568C198.304 225.161 197.648 223.612 199.236 226.556C200.477 228.858 202.018 232.611 200.573 235.216C197.298 241.122 189.059 232.932 188.61 226.299C188.446 223.876 188.721 222.162 190.628 221.395ZM242.103 265.081L242.092 247.833C227.739 239.29 212.504 230.784 198.02 222.218C195.687 220.838 184.836 214.36 183.18 213.797L183.199 231.021C184.212 231.416 185.56 232.455 186.732 233.042L204.963 243.767C209.686 246.633 240.705 264.798 242.103 265.081H242.103Z" fill="#57565B"/>
<path fill-rule="evenodd" clip-rule="evenodd" d="M224.336 223.733C223.951 221.585 224.113 219.213 225.499 218.022C226.206 217.414 227.261 217.16 228.295 217.283C229.344 217.407 229.91 217.914 230.743 218.426C230.794 218.458 230.869 218.496 230.92 218.528C231.997 219.199 233.888 221.153 234.469 222.137C239.095 229.972 235.588 235.909 229.962 232.442C227.463 230.903 224.876 226.742 224.336 223.733ZM206.448 212.52C206.173 207.426 208.675 205.585 212.616 207.892L214.599 209.355C215.418 209.977 214.89 209.307 215.571 210.091C217.522 212.337 219.745 217.882 218.541 220.792C216.653 225.354 211.921 222.3 209.784 219.929L208.2 217.763C207.451 216.626 206.528 213.998 206.448 212.52ZM190.689 197.048C195.39 195.209 200.631 202.293 201.107 207.622C201.288 209.646 200.378 211.942 198.884 212.612C195.253 214.24 191.228 209.16 190.333 207.275C189.646 205.83 188.664 203.657 188.59 201.857C188.539 200.61 188.735 198.607 189.516 197.68C190.395 196.635 189.801 197.395 190.688 197.048H190.689ZM242.107 240.682L242.106 223.403L227.364 214.867C222.563 212.198 217.631 209.263 212.657 206.385C209.226 204.4 184.581 189.74 183.19 189.449L183.206 206.482C184.205 207.362 185.639 207.9 186.731 208.569C192.761 212.264 240.187 240.128 242.107 240.682V240.682Z" fill="#57565B"/>
<path fill-rule="evenodd" clip-rule="evenodd" d="M224.319 174.856C223.232 168.893 227.027 167.294 230.109 169.271L230.834 169.703C235.091 171.863 238.715 180.266 235.295 183.931C232.472 186.956 225.556 181.645 224.319 174.856V174.856ZM208.964 158.181C211.786 157.551 215.705 160.848 217.273 164.105C223.077 176.165 211.605 178.222 207.346 166.907C207.094 166.238 207.041 166.319 206.803 165.686C206.11 163.84 205.854 158.876 208.964 158.181L208.964 158.181ZM191.147 147.974C192.175 147.757 193.168 147.779 194.095 148.268C201.588 152.223 203.076 162.781 198.492 163.938C195.428 164.712 193.553 162.223 192.216 161.105C190.269 159.476 188.557 154.838 188.567 152.428C188.577 150.237 189.213 148.382 191.147 147.974H191.147ZM242.089 191.883L242.129 174.627C240.043 173.644 236.869 171.763 234.721 170.421C232.181 168.834 229.907 167.622 227.292 166.077C225.06 164.758 222.38 163.241 220.06 161.859L183.231 140.653L183.201 157.85L212.509 174.927C216.248 177.086 240.415 191.508 242.089 191.883L242.089 191.883Z" fill="#57565B"/>
<path fill-rule="evenodd" clip-rule="evenodd" d="M226.166 241.92C224.627 242.619 223.858 244.77 224.132 247.034C225.417 257.633 237.344 262.243 236.597 252.494C236.446 250.526 235.683 248.73 234.787 247.118C233.951 245.614 232.742 244.145 231.648 243.349L229.506 242.087C228.408 241.554 227.262 241.422 226.166 241.92H226.166Z" fill="#2D292A"/>
<path fill-rule="evenodd" clip-rule="evenodd" d="M224.319 174.856C225.556 181.645 232.472 186.956 235.295 183.931C238.715 180.266 235.091 171.863 230.834 169.703L230.108 169.27C227.027 167.294 223.232 168.893 224.319 174.855V174.856Z" fill="#2D292A"/>
<path fill-rule="evenodd" clip-rule="evenodd" d="M191.147 147.974C189.213 148.382 188.577 150.237 188.568 152.428C188.557 154.838 190.27 159.476 192.216 161.105C193.553 162.223 195.428 164.711 198.492 163.938C203.076 162.781 201.589 152.223 194.095 148.268C193.169 147.779 192.176 147.757 191.148 147.974H191.147Z" fill="#2D292A"/>
<path fill-rule="evenodd" clip-rule="evenodd" d="M208.437 231.537C204.697 233.07 206.667 240.561 209.361 243.921C210.672 245.557 214.068 248.542 216.784 247.301C217.85 246.813 216.997 247.43 217.718 246.431C220.66 242.355 217.324 235.792 213.923 233.005L211.753 231.733C210.751 231.259 209.462 231.117 208.437 231.537Z" fill="#2D292A"/>
<path fill-rule="evenodd" clip-rule="evenodd" d="M190.689 197.048C189.801 197.395 190.395 196.635 189.516 197.68C188.736 198.608 188.539 200.61 188.59 201.857C188.664 203.657 189.647 205.83 190.333 207.275C191.229 209.159 195.253 214.24 198.885 212.612C200.379 211.942 201.288 209.646 201.107 207.622C200.631 202.293 195.391 195.209 190.689 197.048H190.689Z" fill="#2D292A"/>
<path fill-rule="evenodd" clip-rule="evenodd" d="M190.936 172.456C187.003 174.228 188.911 180.44 190.184 182.68C190.645 183.492 191.108 184.022 191.579 184.754C193.017 186.989 197.624 190.51 200.232 186.872C202.118 184.241 200.599 179.943 199.351 177.81C198.464 176.293 197.196 174.663 196.055 173.906C195.335 173.428 195.556 173.618 194.991 173.29C194.386 172.938 194.58 172.958 193.913 172.63C193.004 172.184 191.864 172.039 190.936 172.456Z" fill="#2D292A"/>
<path fill-rule="evenodd" clip-rule="evenodd" d="M208.964 158.181C205.854 158.876 206.11 163.84 206.803 165.686C207.041 166.318 207.095 166.238 207.346 166.907C211.605 178.222 223.078 176.164 217.273 164.105C215.705 160.847 211.787 157.551 208.964 158.181L208.964 158.181Z" fill="#2D292A"/>
<path fill-rule="evenodd" clip-rule="evenodd" d="M224.338 199.294C224.48 200.16 224.372 199.855 224.777 200.812C224.857 201 224.986 201.265 225.049 201.437C225.56 202.835 225.477 202.974 226.382 204.364C230.513 210.707 237.766 210.997 236.533 202.865C235.999 199.343 233.607 195.565 230.526 193.927C230.47 193.897 230.397 193.857 230.342 193.826C225.294 190.937 223.647 195.073 224.338 199.294H224.338Z" fill="#2D292A"/>
<path fill-rule="evenodd" clip-rule="evenodd" d="M190.628 221.395C188.721 222.162 188.446 223.876 188.61 226.299C189.059 232.932 197.298 241.122 200.573 235.216C202.018 232.611 200.477 228.858 199.236 226.556C197.648 223.612 198.304 225.161 197.006 223.568C195.473 221.685 196.974 223.227 194.855 222.006C193.194 221.05 192.983 220.448 190.628 221.395Z" fill="#2D292A"/>
<path fill-rule="evenodd" clip-rule="evenodd" d="M216.863 195.744C217.369 195.306 216.918 195.996 217.355 195.159C217.508 194.865 217.505 194.9 217.585 194.418C217.626 194.178 217.613 193.241 217.594 192.965C217.444 190.724 215.981 187.528 214.566 186.397C215.529 187.589 216.493 188.87 217.187 190.83C217.541 191.833 217.738 192.973 217.625 194.103C217.558 194.767 217.362 195.186 217.323 195.624C217.188 197.147 217.133 196.064 217.597 197.131C217.937 197.016 218.79 197.676 218.836 194.405C218.94 186.821 210.532 179.294 207.08 183.994C204.75 187.166 208.116 196.228 213.274 198.313C215.122 199.06 218.099 199.08 217.645 196.776C217.052 196.53 217.393 196.458 216.035 196.929C215.372 197.158 215.575 197.242 214.589 197.2C213.339 197.147 212.749 196.587 212.007 196.149C213.701 197.44 214.883 197.429 216.825 196.675C216.648 195.685 216.844 196.092 216.496 195.363C214.7 194.874 215.378 196.542 212.329 194.991C214.867 196.407 216.352 195.45 215.468 194.155C214.583 192.857 214.451 193.655 213.482 193.578C212.686 193.514 212.219 193.041 211.763 192.697C212.508 193.517 212.855 193.573 214.171 193.645C214.707 192.299 215.031 192.516 214.614 190.46C214.992 191.758 214.761 191.631 214.807 192.79C214.839 193.605 214.612 193.861 215.763 194.229L216.147 194.232C216.935 192.52 216.143 190.825 215.467 189.265C215.816 190.063 216.398 191.183 216.468 192.407C216.527 193.436 216.322 193.534 216.263 194.274C216.164 195.497 215.978 194.965 216.863 195.743L216.863 195.744Z" fill="#2D292A"/>
<path fill-rule="evenodd" clip-rule="evenodd" d="M206.448 212.52C206.527 213.998 207.45 216.626 208.2 217.763L209.784 219.928C211.921 222.3 216.653 225.354 218.541 220.792C219.745 217.882 217.522 212.337 215.571 210.091C214.89 209.308 215.418 209.977 214.599 209.355L212.616 207.892C208.675 205.585 206.173 207.426 206.448 212.52Z" fill="#2D292A"/>
<path fill-rule="evenodd" clip-rule="evenodd" d="M224.336 223.733C224.876 226.743 227.463 230.903 229.962 232.442C235.588 235.909 239.095 229.972 234.469 222.137C233.888 221.153 231.997 219.199 230.92 218.528C230.869 218.496 230.795 218.458 230.743 218.426C229.91 217.914 229.344 217.407 228.295 217.283C227.261 217.16 226.206 217.414 225.499 218.022C224.113 219.213 223.951 221.585 224.336 223.733Z" fill="#2D292A"/>
<path fill-rule="evenodd" clip-rule="evenodd" d="M258.985 152.77L259.159 152.669C252.895 156.308 248.118 159.044 247.707 159.163C247.097 160.479 247.498 181.081 247.498 182.331L247.46 344.507C247.504 346.091 247.518 345.582 247.793 345.954L259.089 339.51C259.737 339.14 260.394 338.762 261.058 338.378L261.083 338.364C261.647 338.037 262.217 337.706 262.792 337.372L340.999 291.962V287.682L340.997 287.68V105.152L292.098 133.544C291.985 133.537 292.041 133.592 291.703 133.694C291.411 133.782 272.248 145.068 259.303 152.586L259.159 152.669L258.985 152.77Z" fill="#9FA4A8"/>
<path fill-rule="evenodd" clip-rule="evenodd" d="M270.659 91.2992C268.186 83.2391 271.308 83.535 275.443 77.894C279.698 72.0884 279.05 69.1793 275.433 63.3609C272.306 58.3302 269.555 55.4892 273.581 49.1616C274.795 47.2532 276.404 44.5565 275.6 41.5076C275.022 39.3169 272.417 36.5487 270.896 35.8362C271.534 38.9793 273.018 40.4327 270.917 43.8008C268.687 47.3756 263.105 49.829 263.523 56.5655C264.081 65.5456 274.54 68.0937 268.048 77.8801C266.823 79.7263 265.413 82.8343 266.139 85.7167C266.718 88.0119 269.063 90.4957 270.659 91.2992Z" fill="black" fill-opacity="0.4"/>
<path fill-rule="evenodd" clip-rule="evenodd" d="M229.27 91.4783C230.872 90.5593 233.152 88.2817 233.717 85.9349C235.223 79.6864 228.366 76.3244 229.913 70.3359C231.125 65.6429 241.049 58.1713 233.679 49.2154C232.267 47.4996 230.19 46.0476 228.882 43.9215C227.065 40.9675 228.17 38.9219 229.053 36.0719C227.577 36.6518 224.999 39.4565 224.353 41.409C222.327 47.5287 229.633 50.2049 228.066 56.7072C226.302 64.026 217.059 67.8825 224.148 77.8036C225.061 79.0809 227.547 81.434 228.794 83.2591C231.025 86.5236 229.997 87.9437 229.27 91.4786V91.4783Z" fill="black" fill-opacity="0.4"/>
<path fill-rule="evenodd" clip-rule="evenodd" d="M249.445 119.413C248.387 114.107 247.295 113.92 252.023 108.693C257.232 102.933 259.371 99.1216 254.298 91.4904C250.995 86.5234 248.519 83.3861 252.493 77.1434C253.785 75.1131 255.45 72.399 254.358 69.3124C253.607 67.1891 251.278 64.8217 249.677 63.9315C250.44 66.5415 251.676 68.9949 249.921 71.6655C247.122 75.9256 237.801 80.8682 245.076 91.8812C246.398 93.8833 248.033 95.6447 248.772 98.2858C250.605 104.836 240.698 110.139 246.671 116.928C247.297 117.64 248.383 118.866 249.445 119.413H249.445Z" fill="black" fill-opacity="0.4"/>
<path fill-rule="evenodd" clip-rule="evenodd" d="M248.713 55.4222C250.094 54.9521 252.649 51.9114 253.169 50.1358C254.056 47.1072 252.674 44.223 251.41 42.1241C247.416 35.4873 249.435 33.1228 253.019 28.0851C256.234 23.566 256.981 17.6008 253.34 13.3354C252.523 12.3784 251.821 11.654 250.978 10.7475C246.385 5.81143 247.03 6.34249 248.481 0C246.748 1.12679 244.49 3.17148 243.804 5.59626C242.095 11.6326 249.498 14.7132 247.505 20.8944C244.831 29.1893 235.108 33.2447 246.165 44.5077C250.222 48.6406 250.174 50.94 248.713 55.4222Z" fill="black" fill-opacity="0.4"/>
<path fill-rule="evenodd" clip-rule="evenodd" d="M272.4 227.56C280.319 227.711 291.458 227.287 298.412 227.725C298.88 230.036 280.663 265.226 280.952 267.771C282.477 267.615 282.158 267.321 283.742 265.1C284.547 263.972 285.07 263.113 285.962 261.867C293.15 251.825 300.439 240.406 307.604 230.437L315.791 218.541C316.18 217.205 315.835 217.901 315.651 217.654C314.565 216.955 297.976 217.387 295.135 217.387C289.071 217.387 289.072 218.415 291.18 213.639C292.262 211.19 293.406 208.874 294.53 206.37C296.668 201.608 298.837 196.569 301.102 191.98L306.067 181.156C306.647 179.948 307.822 178.443 307.143 177.299C305.725 177.545 303.808 181.206 302.483 183.038C295.414 192.82 287.902 204.48 280.843 214.471C279.38 216.541 272.548 225.831 272.4 227.56H272.4Z" fill="#FFFF7D"/>
<path fill-rule="evenodd" clip-rule="evenodd" d="M185.505 215.527C187.503 212.131 191.158 202.798 192.665 198.863C190.781 201.074 189.057 203.871 187.275 206.523C186.348 207.903 185.6 209.049 184.647 210.33C183.722 211.574 182.639 213.091 181.972 214.436C182.472 214.799 181.978 214.524 182.671 214.813L185.505 215.527Z" fill="#FFFF7D"/>
<path fill-rule="evenodd" clip-rule="evenodd" d="M182.164 173.981C180.72 172.498 173.097 169.672 169.951 168.152L165.792 166.356L165.409 170.494C168.506 170.346 178.07 173.723 182.164 173.981Z" fill="#FFFF7D"/>
<path fill-rule="evenodd" clip-rule="evenodd" d="M167.494 196.459C169.977 195.398 172.725 193.881 175.15 192.614L182.044 188.933C182.132 188.856 182.217 188.753 182.286 188.688C182.356 188.624 182.452 188.529 182.52 188.436L165 193.293C165.794 194.489 166.538 195.753 167.494 196.459Z" fill="#FFFF7D"/>
<path fill-rule="evenodd" clip-rule="evenodd" d="M191.454 162.591L183.717 146.038L180.834 148.571C182.218 150.98 184.381 153.483 186.065 155.788C186.799 156.792 190.337 161.851 191.454 162.591Z" fill="#FFFF7D"/>
<path fill-rule="evenodd" clip-rule="evenodd" d="M192.234 172.628L179.175 159.498L178.306 161.176C177.998 161.965 177.893 162.216 177.513 162.944C178.347 163.929 190.925 172.136 192.234 172.628Z" fill="#FFFF7D"/>
<path fill-rule="evenodd" clip-rule="evenodd" d="M180.811 202.361C184.153 199.384 190.234 191.719 193.092 189.201L177.528 200.127C178.453 201.209 179.633 201.854 180.811 202.361Z" fill="#FFFF7D"/>
<path fill-rule="evenodd" clip-rule="evenodd" d="M189.687 181.238L170.792 179.494L171.983 183.42L189.687 181.238Z" fill="#FFFF7D"/>
<path fill-rule="evenodd" clip-rule="evenodd" d="M170.904 273.996L186.226 264.847C183.883 264.95 171.613 269.69 168.328 270.909L170.904 273.996L170.904 273.996Z" fill="#FFFF7D"/>
<path fill-rule="evenodd" clip-rule="evenodd" d="M167.283 243.843L167.266 247.646C168.565 248.069 170.273 248.209 171.792 248.479L185.268 250.619C180.93 249.064 171.625 244.763 167.283 243.843Z" fill="#FFFF7D"/>
<path fill-rule="evenodd" clip-rule="evenodd" d="M180.298 236.08C179.391 237.205 179.349 238.229 178.723 239.536C180.546 241.146 191.828 247.239 194.617 248.696L180.298 236.08H180.298Z" fill="#FFFF7D"/>
<path fill-rule="evenodd" clip-rule="evenodd" d="M186.445 290.715C187.796 291.656 188.825 291.438 190.189 291.855L194.805 279.739C195.324 278.176 196.04 276.813 196.068 275.187C193.811 277.911 188.261 288.982 186.445 290.715Z" fill="#FFFF7D"/>
<path fill-rule="evenodd" clip-rule="evenodd" d="M173.327 256.664L174.661 260.546L192.021 257.248L173.327 256.664Z" fill="#FFFF7D"/>
<path fill-rule="evenodd" clip-rule="evenodd" d="M183.99 222.305L181.345 225.007C182.286 226.831 185.44 230.177 186.932 231.877C187.91 232.991 188.744 234.056 189.731 235.197L191.806 237.618C192.562 238.316 190.902 236.942 192.28 238.002L183.99 222.305H183.99Z" fill="#FFFF7D"/>
<path fill-rule="evenodd" clip-rule="evenodd" d="M184.793 278.932L195.697 265.081L181.472 277.018C182.292 277.791 183.539 278.577 184.793 278.931V278.932Z" fill="#FFFF7D"/>
<path fill-rule="evenodd" clip-rule="evenodd" d="M206.478 189.005C206.619 189.87 206.512 189.565 206.917 190.522C206.997 190.711 207.126 190.976 207.188 191.147C207.7 192.545 207.617 192.685 208.522 194.075C212.653 200.417 219.906 200.708 218.673 192.576C218.139 189.054 215.747 185.276 212.666 183.637C212.61 183.608 212.537 183.568 212.482 183.536C207.433 180.647 205.787 184.783 206.478 189.005H206.478Z" fill="#2D292A"/>
</g>
<defs>
<clipPath id="clip0">
<rect width="176" height="346" fill="white" transform="translate(165)"/>
</clipPath>
</defs>
</svg>
